<?xml version="1.0" encoding="UTF-8"?>
<svg width="700pt" height="700pt" version="1.1" viewBox="0 0 700 700" xmlns="http://www.w3.org/2000/svg">
 <g>
  <path d="m577.51 210c-0.11719 0-0.22266-0.007812-0.35156 0h-454.67c-7.8203 0-14.695-5.2031-16.828-12.73-2.125-7.5391 1-15.566 7.668-19.672l227.34-140c5.6211-3.4688 12.703-3.4688 18.324 0l225.41 138.81c6.2305 2.6758 10.594 8.8789 10.594 16.09 0 9.6641-7.8281 17.5-17.488 17.5zm-393.23-35h331.1l-165.55-101.95z"/>
  <path d="m542.33 525h-385c-9.6641 0-17.5-7.8359-17.5-17.5v-297.5c0-9.6641 7.8359-17.5 17.5-17.5s17.5 7.8359 17.5 17.5v280h350v-280c0-9.6641 7.8359-17.5 17.5-17.5s17.5 7.8359 17.5 17.5v297.5c0 9.6641-7.8359 17.5-17.5 17.5z"/>
  <path d="m402.33 472.5h-140c-9.6641 0-17.5-7.8359-17.5-17.5v-157.5c0-9.6641 7.8359-17.5 17.5-17.5h140c9.6641 0 17.5 7.8359 17.5 17.5v157.5c0 9.6641-7.8359 17.5-17.5 17.5zm-122.5-35h105v-122.5h-105z"/>
  <path d="m454.83 420h-35c-9.6641 0-17.5-7.8359-17.5-17.5s7.8359-17.5 17.5-17.5h17.5v-122.5h-105v17.5c0 9.6641-7.8359 17.5-17.5 17.5s-17.5-7.8359-17.5-17.5v-35c0-9.6641 7.8359-17.5 17.5-17.5h140c9.6641 0 17.5 7.8359 17.5 17.5v157.5c0 9.6641-7.8359 17.5-17.5 17.5z"/>
  <path d="m349.83 367.5h-35c-9.6641 0-17.5-7.8359-17.5-17.5s7.8359-17.5 17.5-17.5h35c9.6641 0 17.5 7.8359 17.5 17.5s-7.8359 17.5-17.5 17.5z"/>
  <path d="m349.83 420h-35c-9.6641 0-17.5-7.8359-17.5-17.5s7.8359-17.5 17.5-17.5h35c9.6641 0 17.5 7.8359 17.5 17.5s-7.8359 17.5-17.5 17.5z"/>
 </g>
</svg>
