<svg id="svg" version="1.1" xmlns="http://www.w3.org/2000/svg" xmlns:xlink="http://www.w3.org/1999/xlink" width="400" height="404.74074074074076" viewBox="0, 0, 400,404.74074074074076"><g id="svgg"><path id="path0" d="M182.851 28.593 C 182.987 30.304,183.261 34.837,183.459 38.667 L 183.821 45.630 189.688 45.630 C 194.509 45.630,195.556 45.471,195.556 44.741 C 195.556 44.020,194.601 43.852,190.519 43.852 L 185.481 43.852 185.478 39.556 C 185.471 30.583,184.811 25.481,183.659 25.481 C 182.750 25.481,182.638 25.913,182.851 28.593 M203.025 28.000 C 201.664 39.165,202.206 48.328,204.042 45.185 C 204.919 43.683,205.104 25.481,204.242 25.481 C 203.614 25.481,203.237 26.263,203.025 28.000 M171.424 26.552 C 170.393 27.207,172.338 46.218,173.481 46.657 C 173.917 46.824,174.400 46.834,174.555 46.679 C 174.942 46.293,172.911 26.072,172.487 26.083 C 172.301 26.088,171.822 26.299,171.424 26.552 M212.259 27.111 C 212.407 27.888,213.226 28.226,215.525 28.457 C 219.487 28.857,219.284 28.138,218.023 37.333 C 216.679 47.126,216.672 47.407,217.778 47.407 C 218.267 47.407,218.686 47.341,218.710 47.259 C 218.735 47.178,219.352 43.111,220.082 38.222 C 220.811 33.333,221.658 29.367,221.964 29.408 C 228.176 30.241,228.741 30.240,228.741 29.394 C 228.741 28.339,217.571 26.074,212.371 26.074 C 212.200 26.074,212.150 26.541,212.259 27.111 M155.281 28.548 C 150.457 29.932,148.140 33.021,148.161 38.045 C 148.197 46.659,155.525 51.426,163.396 47.955 C 166.547 46.566,165.094 45.558,161.343 46.531 C 156.330 47.831,152.510 46.017,151.069 41.650 C 148.806 34.794,152.504 29.917,159.852 30.067 C 162.061 30.113,162.963 29.905,162.963 29.351 C 162.963 27.807,159.225 27.416,155.281 28.548 M235.548 30.370 C 235.097 31.624,231.704 47.987,231.704 48.910 C 231.704 50.133,233.340 49.994,233.695 48.741 C 234.988 44.167,237.637 30.714,237.340 30.233 C 236.827 29.403,235.870 29.476,235.548 30.370 M247.508 33.037 C 246.596 34.560,242.302 51.716,242.735 52.110 C 243.023 52.372,245.184 53.160,247.536 53.860 C 249.889 54.561,252.222 55.290,252.721 55.482 C 253.346 55.722,253.630 55.469,253.630 54.673 C 253.630 53.742,252.752 53.261,249.133 52.210 C 246.274 51.379,244.733 50.644,244.901 50.192 C 245.046 49.801,245.509 48.123,245.930 46.462 L 246.696 43.443 251.139 44.813 C 253.582 45.567,255.809 46.044,256.087 45.872 C 257.288 45.130,256.329 44.428,252.372 43.154 C 247.524 41.592,247.356 41.364,248.407 37.765 L 249.185 35.099 254.119 36.624 C 258.312 37.920,259.133 38.020,259.591 37.296 C 260.023 36.613,258.990 36.072,254.361 34.560 C 247.826 32.424,247.869 32.434,247.508 33.037 M130.370 35.579 C 130.370 35.918,130.122 38.651,129.819 41.653 C 128.464 55.057,128.454 56.889,129.737 56.889 C 130.770 56.889,130.930 56.420,131.084 52.920 L 131.259 48.952 135.035 47.746 L 138.811 46.540 141.257 49.349 C 143.389 51.797,145.780 53.042,145.777 51.704 C 145.775 51.197,138.408 41.864,134.740 37.723 C 132.472 35.163,130.370 34.132,130.370 35.579 M136.889 43.947 C 137.371 44.769,137.012 45.086,134.707 45.871 C 131.273 47.041,131.323 47.104,131.839 42.290 L 132.265 38.305 134.288 40.634 C 135.401 41.915,136.571 43.406,136.889 43.947 M111.556 42.184 C 108.541 43.505,106.083 44.755,106.094 44.960 C 106.176 46.513,114.382 62.554,115.174 62.710 C 116.560 62.983,116.397 61.488,114.667 58.074 C 112.690 54.173,112.608 54.347,117.333 52.444 C 120.362 51.225,121.481 50.480,121.481 49.684 C 121.481 48.287,121.563 48.275,116.942 50.370 C 111.972 52.624,112.293 52.686,110.482 49.113 C 108.694 45.585,108.656 45.647,114.074 43.343 C 116.356 42.373,118.308 41.157,118.414 40.641 C 118.693 39.276,117.660 39.508,111.556 42.184 M266.343 42.343 C 263.825 44.862,264.341 46.871,268.702 51.514 C 274.983 58.202,270.774 62.327,262.951 57.150 C 260.005 55.200,258.480 56.304,261.132 58.467 C 270.205 65.864,278.926 58.700,270.815 50.513 C 264.390 44.028,268.443 39.674,275.921 45.028 C 278.315 46.743,279.111 46.797,279.111 45.247 C 279.111 42.069,268.932 39.755,266.343 42.343 M301.997 59.185 L 300.365 60.888 312.757 73.259 C 358.745 119.171,377.055 170.643,368.276 229.333 C 362.145 270.324,336.862 311.761,301.953 338.034 L 297.503 341.383 298.826 343.425 C 300.493 345.999,300.653 345.988,304.593 343.025 C 343.095 314.070,368.922 270.255,374.229 224.889 C 381.362 163.904,359.868 108.428,312.081 64.490 C 303.448 56.553,304.160 56.927,301.997 59.185 M86.769 61.497 C 52.342 89.340,28.958 129.105,22.398 170.963 C 20.606 182.402,20.429 215.125,22.102 225.681 C 28.968 268.987,54.264 311.599,91.473 342.539 L 96.725 346.905 98.428 344.860 L 100.131 342.815 98.175 341.037 C 97.099 340.059,92.863 336.267,88.761 332.610 C 55.812 303.235,34.196 265.252,27.458 224.889 C 25.033 210.357,26.012 179.097,29.403 162.835 C 36.792 127.392,60.368 89.715,89.926 66.112 C 94.887 62.150,94.583 62.763,92.889 60.147 C 91.233 57.591,91.738 57.479,86.769 61.497 M194.370 203.852 L 194.370 325.926 197.037 325.926 L 199.704 325.926 199.704 203.852 L 199.704 81.778 197.037 81.778 L 194.370 81.778 194.370 203.852 M263.111 137.298 C 249.620 139.554,242.147 148.788,242.100 163.259 C 242.056 177.053,243.801 179.853,265.690 201.113 C 287.847 222.632,290.204 226.247,289.658 237.863 C 289.153 248.620,283.917 253.665,273.225 253.699 C 261.782 253.735,255.812 247.459,253.277 232.730 C 252.124 226.028,252.849 226.520,246.696 228.263 L 241.512 229.732 241.687 232.347 C 242.746 248.234,251.670 260.412,264.177 263.043 C 286.545 267.748,302.839 254.743,301.399 233.334 C 300.461 219.397,296.360 213.469,270.480 188.645 C 253.252 172.120,250.488 166.794,253.865 156.627 C 256.803 147.783,269.926 143.753,279.645 148.711 C 284.591 151.234,289.185 161.254,289.185 169.520 C 289.185 171.416,289.571 171.544,292.741 170.701 C 293.881 170.398,295.977 169.848,297.398 169.479 L 299.981 168.808 299.567 164.941 C 297.320 143.961,283.941 133.815,263.111 137.298 M101.333 200.296 L 101.333 262.519 107.259 262.519 L 113.185 262.519 113.185 232.593 L 113.185 202.667 127.111 202.667 L 141.037 202.667 141.037 197.926 L 141.037 193.185 127.111 193.185 L 113.185 193.185 113.185 170.370 L 113.185 147.556 129.778 147.556 L 146.370 147.556 146.370 142.815 L 146.370 138.074 123.852 138.074 L 101.333 138.074 101.333 200.296 M264.314 347.012 C 255.362 350.895,257.874 358.098,268.088 357.835 C 276.895 357.607,276.382 363.484,267.376 365.988 C 263.273 367.129,262.595 369.044,266.557 368.300 C 278.951 365.975,280.558 354.615,268.336 355.723 C 259.895 356.489,258.583 350.459,266.735 348.370 C 268.350 347.956,269.630 347.284,269.630 346.851 C 269.630 345.810,266.894 345.893,264.314 347.012 M129.372 347.263 C 125.459 348.840,125.876 353.063,130.370 357.380 C 137.852 364.566,130.443 368.581,122.531 361.628 C 121.611 360.820,121.468 360.827,121.131 361.705 C 120.587 363.123,121.634 364.085,125.715 365.917 C 134.730 369.962,140.166 363.809,133.367 357.255 C 128.557 352.618,128.175 351.771,130.052 349.894 C 131.881 348.065,133.464 348.225,137.103 350.607 C 138.696 351.649,139.580 351.916,140.012 351.485 C 142.190 349.306,133.177 345.730,129.372 347.263 M145.363 362.201 C 143.678 367.497,142.372 371.903,142.461 371.992 C 142.650 372.181,151.253 374.752,153.630 375.330 C 154.955 375.652,155.259 375.525,155.259 374.648 C 155.259 373.801,154.316 373.336,150.853 372.473 C 144.753 370.954,144.892 371.109,146.127 367.190 C 147.297 363.479,147.493 363.396,151.946 364.747 C 155.577 365.849,157.037 365.865,157.037 364.805 C 157.037 364.275,155.550 363.615,152.884 362.962 C 147.892 361.738,147.807 361.629,149.017 357.987 L 149.971 355.113 154.053 356.303 C 157.853 357.412,160.004 357.416,159.997 356.315 C 159.995 356.060,157.662 355.213,154.812 354.431 C 151.962 353.650,149.359 352.912,149.028 352.791 C 148.697 352.671,147.047 356.905,145.363 362.201 M245.104 354.117 C 242.533 354.889,240.343 355.607,240.238 355.713 C 240.025 355.926,244.740 374.669,245.106 375.064 C 245.415 375.396,257.141 372.107,257.454 371.600 C 258.419 370.038,256.530 369.926,252.128 371.284 C 249.532 372.085,247.239 372.741,247.033 372.741 C 246.828 372.741,246.349 371.474,245.969 369.926 C 245.590 368.378,245.157 366.696,245.007 366.189 C 244.797 365.481,245.670 365.024,248.773 364.220 C 253.606 362.966,254.312 362.586,253.685 361.571 C 253.305 360.957,252.351 361.063,248.944 362.098 C 244.041 363.587,244.312 363.695,243.299 359.853 L 242.524 356.917 247.188 355.570 C 250.096 354.729,251.852 353.915,251.852 353.407 C 251.852 352.322,250.662 352.447,245.104 354.117 M167.396 358.137 C 166.038 362.291,163.663 377.184,164.294 377.584 C 165.627 378.431,165.810 378.126,166.530 373.857 L 167.242 369.639 169.596 369.955 C 170.890 370.129,172.015 370.360,172.094 370.469 C 172.173 370.578,173.205 372.733,174.386 375.259 C 176.040 378.795,176.814 379.852,177.749 379.852 C 179.308 379.852,179.325 379.950,176.889 375.111 C 174.380 370.129,174.384 370.286,176.754 369.185 C 180.253 367.559,180.424 362.262,177.048 360.050 C 175.036 358.731,167.679 357.274,167.396 358.137 M223.991 359.283 C 217.569 362.679,217.213 373.176,223.379 377.331 C 226.744 379.599,235.838 378.674,236.356 376.011 C 236.526 375.137,236.309 375.019,235.171 375.365 C 228.617 377.355,226.273 377.223,223.772 374.721 C 217.961 368.910,222.079 359.704,230.489 359.704 C 232.754 359.704,233.481 359.488,233.481 358.815 C 233.481 357.316,227.117 357.630,223.991 359.283 M175.109 361.437 C 179.942 364.152,176.664 369.036,170.553 368.225 C 167.610 367.835,167.592 367.819,167.958 365.990 C 168.162 364.977,168.485 363.170,168.676 361.974 C 169.071 359.511,171.344 359.321,175.109 361.437 M185.854 363.407 C 186.350 365.119,187.704 369.319,188.863 372.741 C 192.819 384.417,192.698 384.473,199.466 367.793 C 202.498 360.320,202.375 360.889,200.964 360.889 C 200.126 360.889,199.376 362.088,197.905 365.778 C 196.833 368.467,195.252 372.247,194.391 374.178 L 192.825 377.690 189.950 368.993 C 187.672 362.099,186.856 360.296,186.014 360.296 C 185.014 360.296,185.005 360.477,185.854 363.407 M208.279 366.074 C 209.124 380.009,209.190 380.444,210.461 380.444 C 211.299 380.444,211.550 380.147,211.336 379.407 C 211.171 378.837,210.852 374.304,210.627 369.333 C 210.248 360.938,210.137 360.296,209.074 360.296 C 207.996 360.296,207.949 360.638,208.279 366.074 " stroke="none" fill="#000000" fill-rule="evenodd"></path></g></svg>